PathFileType	4	(X/Y/Z)	C:\Users\86182\Documents\cortex\Trimmed_M1_H1.trc
DataRate	CameraRate	NumFrames	NumMarkers	Units	OrigDataRate	OrigDataStartFrame	OrigNumFrames
100.00	100.00	       84	2	mm	100.00	361	       901
Frame#	Time	gripper			box			
		X1	Y1	Z1	X2	Y2	Z2	

361	3.600	199.59227	195.51364	292.93301	200.30217	194.83472	152.71179	
362	3.610	199.60594	195.51346	292.94363	200.31438	194.85190	152.73026	
363	3.620	199.61771	195.51320	292.95236	200.32834	194.86299	152.74806	
364	3.630	199.62642	195.51335	292.95801	200.33850	194.86716	152.75668	
365	3.640	199.63156	195.51421	292.96036	200.34254	194.86488	152.75279	
366	3.650	199.63315	195.51585	292.95981	200.34021	194.85812	152.73788	
367	3.660	199.63159	195.51807	292.95731	200.33191	194.85004	152.71683	
368	3.670	199.62764	195.52040	292.95419	200.31952	194.84351	152.69550	
369	3.680	199.62236	195.52229	292.95175	200.30663	194.83987	152.67899	
370	3.690	199.61681	195.52330	292.95087	200.29674	194.83945	152.67041	
371	3.700	199.61182	195.52327	292.95178	200.29179	194.84193	152.67081	
372	3.710	199.60799	195.52238	292.95404	200.29210	194.84673	152.67908	
373	3.720	199.60551	195.52106	292.95682	200.29655	194.85265	152.69238	
374	3.730	199.60405	195.51979	292.95914	200.30307	194.85796	152.70618	
375	3.740	199.60281	195.51900	292.96021	200.30966	194.86040	152.71527	
376	3.750	199.60106	195.51898	292.95959	200.31535	194.85817	152.71579	
377	3.760	199.59853	195.51976	292.95724	200.31955	194.85127	152.70734	
378	3.770	199.59557	195.52113	292.95352	200.32101	194.84207	152.69327	
379	3.780	199.59317	195.52266	292.94934	200.31894	194.83385	152.67862	
380	3.790	199.59262	195.52376	292.94604	200.31514	194.82828	152.66696	
381	3.800	199.59488	195.52388	292.94495	200.31329	194.82527	152.66006	
382	3.810	199.59991	195.52283	292.94653	200.31531	194.82497	152.65912	
383	3.820	199.60674	195.52074	292.95026	200.32014	194.82802	152.66507	
384	3.830	199.61382	195.51805	292.95505	200.32629	194.83423	152.67723	
385	3.840	199.61980	195.51540	292.95969	200.33295	194.84195	152.69296	
386	3.850	199.62357	195.51337	292.96320	200.33894	194.84932	152.70834	
387	3.860	199.62444	195.51241	292.96487	200.34247	194.85469	152.71924	
388	3.870	199.62215	195.51268	292.96454	200.34200	194.85677	152.72220	
389	3.880	199.61702	195.51405	292.96225	200.33617	194.85518	152.71591	
390	3.890	199.60999	195.51614	292.95862	200.32440	194.85074	152.70203	
391	3.900	199.60262	195.51836	292.95453	200.30838	194.84460	152.68423	
392	3.910	199.59651	195.52010	292.95117	200.29172	194.83786	152.66675	
393	3.920	199.59277	195.52089	292.94955	200.27771	194.83215	152.65323	
394	3.930	199.59195	195.52066	292.95007	200.26823	194.82944	152.64639	
395	3.940	199.59427	195.51959	292.95251	200.26382	194.83087	152.64713	
396	3.950	199.59955	195.51791	292.95609	200.26399	194.83603	152.65408	
397	3.960	199.60677	195.51601	292.95990	200.26746	194.84334	152.66422	
398	3.970	199.61447	195.51425	292.96307	200.27284	194.85065	152.67365	
399	3.980	199.62135	195.51308	292.96490	200.27930	194.85591	152.67828	
400	3.990	199.62660	195.51277	292.96509	200.28647	194.85783	152.67480	
401	4.000	199.62996	195.51340	292.96353	200.29419	194.85609	152.66125	
402	4.010	199.63173	195.51488	292.96045	200.30238	194.85110	152.63712	
403	4.020	199.63239	195.51685	292.95642	200.31105	194.84322	152.60281	
404	4.030	199.63237	195.51884	292.95227	200.31982	194.83266	152.55957	
405	4.040	199.63200	195.52037	292.94904	200.32811	194.81967	152.50963	
406	4.050	199.63147	195.52104	292.94757	200.33511	194.80493	152.45679	
407	4.060	199.63080	195.52077	292.94824	200.34015	194.79002	152.40601	
408	4.070	199.62961	195.51974	292.95081	200.34305	194.77696	152.36209	
409	4.080	199.62749	195.51837	292.95444	200.34416	194.76701	152.32822	
410	4.090	199.62427	195.51712	292.95819	200.34387	194.76025	152.30472	
411	4.100	199.62018	195.51636	292.96127	200.34230	194.75595	152.28976	
412	4.110	199.61574	195.51624	292.96323	200.33937	194.75336	152.28043	
413	4.120	199.61153	195.51672	292.96393	200.33517	194.75185	152.27393	
414	4.130	199.60811	195.51767	292.96350	200.33011	194.75105	152.26840	
415	4.140	199.60583	195.51886	292.96225	200.32507	194.75095	152.26324	
416	4.150	199.60487	195.52002	292.96060	200.32137	194.75185	152.25883	
417	4.160	199.60522	195.52089	292.95905	200.32027	194.75424	152.25583	
418	4.170	199.60684	195.52126	292.95792	200.32220	194.75819	152.25467	
419	4.180	199.60953	195.52103	292.95746	200.32639	194.76291	152.25531	
420	4.190	199.61287	195.52026	292.95776	200.33130	194.76720	152.25739	
421	4.200	199.61621	195.51913	292.95865	200.33575	194.77039	152.26016	
422	4.210	199.61880	195.51796	292.95984	200.33917	194.77248	152.26268	
423	4.220	199.62019	195.51703	292.96097	200.34126	194.77382	152.26398	
424	4.230	199.62024	195.51653	292.96179	200.34171	194.77448	152.26332	
425	4.240	199.61916	195.51645	292.96225	200.34006	194.77422	152.26047	
426	4.250	199.61736	195.51672	292.96228	200.33606	194.77261	152.25581	
427	4.260	199.61516	195.51726	292.96207	200.33005	194.76945	152.25038	
428	4.270	199.61284	195.51790	292.96167	200.32317	194.76526	152.24536	
429	4.280	199.61063	195.51851	292.96130	200.31705	194.76118	152.24158	
430	4.290	199.60866	195.51898	292.96109	200.31305	194.75844	152.23930	
431	4.300	199.60696	195.51924	292.96118	200.31163	194.75758	152.23822	
432	4.310	199.60548	195.51929	292.96149	200.31224	194.75841	152.23781	
433	4.320	199.60419	195.51927	292.96188	200.31383	194.76016	152.23743	
434	4.330	199.60315	195.51941	292.96198	200.31531	194.76212	152.23645	
435	4.340	199.60262	195.51981	292.96149	200.31599	194.76375	152.23459	
436	4.350	199.60292	195.52042	292.96036	200.31580	194.76494	152.23193	
437	4.360	199.60440	195.52112	292.95877	200.31505	194.76576	152.22891	
438	4.370	199.60710	195.52165	292.95709	200.31416	194.76643	152.22594	
439	4.380	199.61079	195.52180	292.95575	200.31343	194.76703	152.22339	
440	4.390	199.61513	195.52141	292.95514	200.31294	194.76750	152.22153	
441	4.400	199.61969	195.52048	292.95535	200.31264	194.76781	152.22034	
442	4.410	199.62390	195.51918	292.95630	200.31247	194.76799	152.21960	
443	4.420	199.62712	195.51776	292.95773	200.31248	194.76830	152.21893	
444	4.430	199.62901	195.51646	292.95935	200.31276	194.76909	152.21783	
